<svg xmlns="http://www.w3.org/2000/svg" width="923" height="916.158" viewBox="0 0 923 916.158">
  <g id="Grupo_55356" data-name="Grupo 55356" transform="translate(-331 -8727)">
    <path id="Trazado_100187" data-name="Trazado 100187" d="M416.374,99.24V400.589H120.27C120.591,236.038,252.522,102.372,416.374,99.24Z" transform="translate(371.73 8843.76)" fill="#81c140"/>
    <path id="Trazado_100188" data-name="Trazado 100188" d="M579.574,400.589H283.47V99.24C447.341,102.391,579.254,236.038,579.574,400.589Z" transform="translate(516.426 8843.76)" fill="#9ddfd3"/>
    <path id="Trazado_100189" data-name="Trazado 100189" d="M579.367,265.23c-5.811,159.626-135.553,287.652-295.9,290.727V265.23Z" transform="translate(516.426 8990.929)" fill="#ffc93c"/>
    <path id="Trazado_100190" data-name="Trazado 100190" d="M416.277,265.23V555.957c-160.325-3.075-290.086-131.1-295.9-290.727Z" transform="translate(371.828 8990.929)" fill="#cc3d60"/>
    <path id="Trazado_101015" data-name="Trazado 101015" d="M5.1-14.219,8.75-3.906l3.633-10.312H16.23V0H13.291V-3.887l.293-6.709L9.746,0H7.734L3.906-10.586l.293,6.7V0H1.27V-14.219Z" transform="translate(666 9090)" fill="#fff"/>
    <path id="Trazado_101016" data-name="Trazado 101016" d="M5.1-14.219,8.75-3.906l3.633-10.312H16.23V0H13.291V-3.887l.293-6.709L9.746,0H7.734L3.906-10.586l.293,6.7V0H1.27V-14.219ZM24.727,0a3.134,3.134,0,0,1-.283-.947A3.415,3.415,0,0,1,21.777.2,3.752,3.752,0,0,1,19.2-.7a2.89,2.89,0,0,1-1.021-2.266,2.986,2.986,0,0,1,1.245-2.578,6.144,6.144,0,0,1,3.6-.908h1.3v-.605a1.741,1.741,0,0,0-.376-1.172,1.479,1.479,0,0,0-1.187-.439,1.682,1.682,0,0,0-1.118.342,1.161,1.161,0,0,0-.405.938H18.418a2.835,2.835,0,0,1,.566-1.7,3.744,3.744,0,0,1,1.6-1.226,5.837,5.837,0,0,1,2.324-.444,4.611,4.611,0,0,1,3.1.981,3.433,3.433,0,0,1,1.147,2.759v4.58a5.052,5.052,0,0,0,.42,2.275V0ZM22.393-1.963a2.431,2.431,0,0,0,1.152-.278,1.828,1.828,0,0,0,.781-.747V-4.8H23.271q-2.119,0-2.256,1.465l-.01.166a1.13,1.13,0,0,0,.371.869A1.441,1.441,0,0,0,22.393-1.963Zm10.313-11.2v2.6h1.807V-8.5H32.705v5.273a1.259,1.259,0,0,0,.225.84,1.128,1.128,0,0,0,.859.254,4.5,4.5,0,0,0,.83-.068V-.059A5.81,5.81,0,0,1,32.91.2q-2.969,0-3.027-3V-8.5H28.34v-2.07h1.543v-2.6ZM40.947.2A5.187,5.187,0,0,1,37.163-1.23a5.068,5.068,0,0,1-1.46-3.8V-5.3a6.383,6.383,0,0,1,.615-2.847,4.515,4.515,0,0,1,1.743-1.934,4.893,4.893,0,0,1,2.573-.679,4.385,4.385,0,0,1,3.413,1.367,5.555,5.555,0,0,1,1.245,3.877v1.152H38.564a2.622,2.622,0,0,0,.825,1.66,2.5,2.5,0,0,0,1.743.625,3.046,3.046,0,0,0,2.549-1.182l1.387,1.553a4.237,4.237,0,0,1-1.719,1.4A5.639,5.639,0,0,1,40.947.2Zm-.322-8.672a1.767,1.767,0,0,0-1.362.566,2.926,2.926,0,0,0-.669,1.621H42.52v-.225a2.086,2.086,0,0,0-.508-1.45A1.824,1.824,0,0,0,40.625-8.477Zm8.916-2.09.088,1.182a3.713,3.713,0,0,1,3.037-1.377,2.818,2.818,0,0,1,2.8,1.611,3.628,3.628,0,0,1,3.174-1.611,3.152,3.152,0,0,1,2.559,1,4.6,4.6,0,0,1,.84,3.013V0H59.209V-6.738a2.012,2.012,0,0,0-.352-1.313,1.558,1.558,0,0,0-1.24-.415,1.761,1.761,0,0,0-1.758,1.211L55.869,0H53.047V-6.729a1.988,1.988,0,0,0-.361-1.328,1.573,1.573,0,0,0-1.23-.41,1.829,1.829,0,0,0-1.738,1V0H46.895V-10.566ZM70.332,0a3.134,3.134,0,0,1-.283-.947A3.415,3.415,0,0,1,67.383.2,3.752,3.752,0,0,1,64.81-.7a2.89,2.89,0,0,1-1.021-2.266,2.986,2.986,0,0,1,1.245-2.578,6.144,6.144,0,0,1,3.6-.908h1.3v-.605a1.741,1.741,0,0,0-.376-1.172,1.479,1.479,0,0,0-1.187-.439,1.682,1.682,0,0,0-1.118.342,1.161,1.161,0,0,0-.405.938H64.023a2.835,2.835,0,0,1,.566-1.7,3.744,3.744,0,0,1,1.6-1.226,5.837,5.837,0,0,1,2.324-.444,4.611,4.611,0,0,1,3.1.981,3.433,3.433,0,0,1,1.147,2.759v4.58a5.052,5.052,0,0,0,.42,2.275V0ZM68-1.963a2.431,2.431,0,0,0,1.152-.278,1.828,1.828,0,0,0,.781-.747V-4.8H68.877q-2.119,0-2.256,1.465l-.01.166a1.13,1.13,0,0,0,.371.869A1.441,1.441,0,0,0,68-1.963ZM69.072-15h3.076l-2.705,3.027H67.148Zm9.238,1.836v2.6h1.807V-8.5H78.311v5.273a1.259,1.259,0,0,0,.225.84,1.128,1.128,0,0,0,.859.254,4.5,4.5,0,0,0,.83-.068V-.059A5.81,5.81,0,0,1,78.516.2q-2.969,0-3.027-3V-8.5H73.945v-2.07h1.543v-2.6ZM84.668,0H81.836V-10.566h2.832Zm-3-13.3a1.39,1.39,0,0,1,.425-1.045,1.6,1.6,0,0,1,1.157-.41,1.6,1.6,0,0,1,1.152.41,1.382,1.382,0,0,1,.43,1.045,1.386,1.386,0,0,1-.435,1.055,1.6,1.6,0,0,1-1.147.41,1.6,1.6,0,0,1-1.147-.41A1.386,1.386,0,0,1,81.67-13.3ZM91.387-2.08a1.851,1.851,0,0,0,1.27-.43,1.506,1.506,0,0,0,.508-1.143h2.646a3.62,3.62,0,0,1-.586,1.968A3.866,3.866,0,0,1,93.647-.3,4.936,4.936,0,0,1,91.436.2a4.587,4.587,0,0,1-3.574-1.44,5.7,5.7,0,0,1-1.309-3.979V-5.41a5.635,5.635,0,0,1,1.3-3.9,4.534,4.534,0,0,1,3.564-1.455,4.444,4.444,0,0,1,3.179,1.128,3.994,3.994,0,0,1,1.216,3H93.164a1.923,1.923,0,0,0-.508-1.333,1.7,1.7,0,0,0-1.289-.513,1.7,1.7,0,0,0-1.489.718,4.155,4.155,0,0,0-.5,2.329v.293a4.207,4.207,0,0,0,.5,2.344A1.722,1.722,0,0,0,91.387-2.08ZM103.545,0a3.134,3.134,0,0,1-.283-.947A3.415,3.415,0,0,1,100.6.2a3.752,3.752,0,0,1-2.573-.9A2.89,2.89,0,0,1,97-2.969a2.986,2.986,0,0,1,1.245-2.578,6.144,6.144,0,0,1,3.6-.908h1.3v-.605a1.741,1.741,0,0,0-.376-1.172,1.479,1.479,0,0,0-1.187-.439,1.682,1.682,0,0,0-1.118.342,1.161,1.161,0,0,0-.405.938H97.236a2.835,2.835,0,0,1,.566-1.7,3.744,3.744,0,0,1,1.6-1.226,5.837,5.837,0,0,1,2.324-.444,4.611,4.611,0,0,1,3.1.981,3.433,3.433,0,0,1,1.147,2.759v4.58a5.052,5.052,0,0,0,.42,2.275V0Zm-2.334-1.963a2.431,2.431,0,0,0,1.152-.278,1.828,1.828,0,0,0,.781-.747V-4.8H102.09q-2.119,0-2.256,1.465l-.01.166a1.13,1.13,0,0,0,.371.869A1.441,1.441,0,0,0,101.211-1.963Zm12.656-.957a.909.909,0,0,0-.513-.815,5.824,5.824,0,0,0-1.646-.532q-3.77-.791-3.77-3.2a2.9,2.9,0,0,1,1.167-2.349,4.707,4.707,0,0,1,3.052-.942,5.067,5.067,0,0,1,3.218.947,2.985,2.985,0,0,1,1.206,2.461H113.76a1.366,1.366,0,0,0-.391-1,1.653,1.653,0,0,0-1.221-.4,1.689,1.689,0,0,0-1.1.322,1.017,1.017,0,0,0-.391.82.87.87,0,0,0,.444.757,4.571,4.571,0,0,0,1.5.5,12.244,12.244,0,0,1,1.777.474,2.92,2.92,0,0,1,2.236,2.842A2.756,2.756,0,0,1,115.371-.7a5.35,5.35,0,0,1-3.2.894,5.588,5.588,0,0,1-2.358-.474,3.957,3.957,0,0,1-1.616-1.3,3.018,3.018,0,0,1-.586-1.782h2.676a1.473,1.473,0,0,0,.557,1.152,2.208,2.208,0,0,0,1.387.4,2.044,2.044,0,0,0,1.226-.308A.957.957,0,0,0,113.867-2.92Z" transform="translate(616 9123)" fill="#fff"/>
    <path id="Trazado_101023" data-name="Trazado 101023" d="M11.973-11.846H7.617V0H4.688V-11.846H.391v-2.373H11.973Z" transform="translate(907 9090)" fill="#21214b"/>
    <path id="Trazado_101022" data-name="Trazado 101022" d="M11.973-11.846H7.617V0H4.688V-11.846H.391v-2.373H11.973ZM17.451.2A5.187,5.187,0,0,1,13.667-1.23a5.068,5.068,0,0,1-1.46-3.8V-5.3a6.383,6.383,0,0,1,.615-2.847,4.515,4.515,0,0,1,1.743-1.934,4.893,4.893,0,0,1,2.573-.679,4.385,4.385,0,0,1,3.413,1.367A5.555,5.555,0,0,1,21.8-5.518v1.152H15.068a2.622,2.622,0,0,0,.825,1.66,2.5,2.5,0,0,0,1.743.625,3.046,3.046,0,0,0,2.549-1.182l1.387,1.553a4.237,4.237,0,0,1-1.719,1.4A5.639,5.639,0,0,1,17.451.2Zm-.322-8.672a1.767,1.767,0,0,0-1.362.566A2.926,2.926,0,0,0,15.1-6.289h3.926v-.225a2.086,2.086,0,0,0-.508-1.45A1.824,1.824,0,0,0,17.129-8.477Zm10.664,6.4a1.851,1.851,0,0,0,1.27-.43,1.506,1.506,0,0,0,.508-1.143h2.646a3.62,3.62,0,0,1-.586,1.968A3.866,3.866,0,0,1,30.054-.3,4.936,4.936,0,0,1,27.842.2a4.587,4.587,0,0,1-3.574-1.44,5.7,5.7,0,0,1-1.309-3.979V-5.41a5.635,5.635,0,0,1,1.3-3.9,4.534,4.534,0,0,1,3.564-1.455A4.444,4.444,0,0,1,31-9.634a3.994,3.994,0,0,1,1.216,3H29.57a1.923,1.923,0,0,0-.508-1.333,1.7,1.7,0,0,0-1.289-.513,1.7,1.7,0,0,0-1.489.718,4.155,4.155,0,0,0-.5,2.329v.293a4.207,4.207,0,0,0,.5,2.344A1.722,1.722,0,0,0,27.793-2.08Zm8.633-8.486.088,1.221a3.689,3.689,0,0,1,3.037-1.416,3.066,3.066,0,0,1,2.5.986,4.6,4.6,0,0,1,.84,2.949V0H40.068V-6.758a1.831,1.831,0,0,0-.391-1.3,1.749,1.749,0,0,0-1.3-.405,1.942,1.942,0,0,0-1.787,1.016V0H33.77V-10.566ZM44.59-5.381a6.267,6.267,0,0,1,.605-2.8,4.432,4.432,0,0,1,1.743-1.9,5.086,5.086,0,0,1,2.642-.674,4.812,4.812,0,0,1,3.491,1.309A5.252,5.252,0,0,1,54.58-5.9l.02.723a5.523,5.523,0,0,1-1.357,3.9A4.718,4.718,0,0,1,49.6.2,4.742,4.742,0,0,1,45.952-1.27,5.62,5.62,0,0,1,44.59-5.254Zm2.822.205a3.939,3.939,0,0,0,.566,2.3,1.869,1.869,0,0,0,1.621.8,1.874,1.874,0,0,0,1.6-.786,4.31,4.31,0,0,0,.576-2.515A3.9,3.9,0,0,0,51.2-7.666a1.874,1.874,0,0,0-1.621-.811,1.843,1.843,0,0,0-1.6.806A4.383,4.383,0,0,0,47.412-5.176ZM59.316,0H56.484V-15h2.832ZM61.2-5.381a6.267,6.267,0,0,1,.605-2.8,4.432,4.432,0,0,1,1.743-1.9,5.086,5.086,0,0,1,2.642-.674,4.812,4.812,0,0,1,3.491,1.309A5.252,5.252,0,0,1,71.191-5.9l.02.723a5.523,5.523,0,0,1-1.357,3.9A4.718,4.718,0,0,1,66.211.2,4.742,4.742,0,0,1,62.563-1.27,5.62,5.62,0,0,1,61.2-5.254Zm2.822.205a3.939,3.939,0,0,0,.566,2.3,1.869,1.869,0,0,0,1.621.8,1.874,1.874,0,0,0,1.6-.786,4.31,4.31,0,0,0,.576-2.515,3.9,3.9,0,0,0-.576-2.285,1.874,1.874,0,0,0-1.621-.811,1.843,1.843,0,0,0-1.6.806A4.383,4.383,0,0,0,64.023-5.176Zm8.516-.186A6.193,6.193,0,0,1,73.7-9.277a3.75,3.75,0,0,1,3.12-1.484A3.289,3.289,0,0,1,79.521-9.57l.117-1H82.2V-.352a4.516,4.516,0,0,1-.63,2.412,4.045,4.045,0,0,1-1.772,1.563,6.231,6.231,0,0,1-2.676.537A5.794,5.794,0,0,1,74.854,3.7a4.021,4.021,0,0,1-1.67-1.2L74.434.781a3.306,3.306,0,0,0,2.559,1.182,2.42,2.42,0,0,0,1.748-.6,2.253,2.253,0,0,0,.625-1.7V-.908A3.264,3.264,0,0,1,76.8.2a3.74,3.74,0,0,1-3.081-1.489,6.191,6.191,0,0,1-1.177-3.95Zm2.822.205a3.845,3.845,0,0,0,.576,2.251,1.834,1.834,0,0,0,1.582.815,1.961,1.961,0,0,0,1.846-.967V-7.5a1.956,1.956,0,0,0-1.826-.967,1.845,1.845,0,0,0-1.6.83A4.334,4.334,0,0,0,75.361-5.156ZM87.412,0H84.59V-10.566h2.822Zm-.83-14.854h3.076l-2.705,3.027H84.658ZM95.967,0a3.134,3.134,0,0,1-.283-.947A3.415,3.415,0,0,1,93.018.2a3.752,3.752,0,0,1-2.573-.9,2.89,2.89,0,0,1-1.021-2.266,2.986,2.986,0,0,1,1.245-2.578,6.144,6.144,0,0,1,3.6-.908h1.3v-.605a1.741,1.741,0,0,0-.376-1.172A1.479,1.479,0,0,0,94-8.672a1.682,1.682,0,0,0-1.118.342,1.161,1.161,0,0,0-.405.938H89.658a2.835,2.835,0,0,1,.566-1.7,3.744,3.744,0,0,1,1.6-1.226,5.837,5.837,0,0,1,2.324-.444,4.611,4.611,0,0,1,3.1.981A3.433,3.433,0,0,1,98.4-7.021v4.58a5.052,5.052,0,0,0,.42,2.275V0ZM93.633-1.963a2.431,2.431,0,0,0,1.152-.278,1.828,1.828,0,0,0,.781-.747V-4.8H94.512q-2.119,0-2.256,1.465l-.01.166a1.13,1.13,0,0,0,.371.869A1.441,1.441,0,0,0,93.633-1.963Z" transform="translate(863 9123)" fill="#21214b"/>
    <path id="Trazado_101026" data-name="Trazado 101026" d="M12.432-4.736a5.031,5.031,0,0,1-1.694,3.613A5.951,5.951,0,0,1,6.709.2a5.351,5.351,0,0,1-4.3-1.841A7.548,7.548,0,0,1,.84-6.7v-.869a8.523,8.523,0,0,1,.723-3.613,5.416,5.416,0,0,1,2.065-2.4,5.786,5.786,0,0,1,3.12-.835A5.8,5.8,0,0,1,10.713-13.1a5.407,5.407,0,0,1,1.738,3.7H9.521a2.97,2.97,0,0,0-.767-2,2.839,2.839,0,0,0-2.007-.62,2.489,2.489,0,0,0-2.192,1.05,5.883,5.883,0,0,0-.747,3.257v1.074a6.3,6.3,0,0,0,.7,3.369A2.443,2.443,0,0,0,6.709-2.2a2.892,2.892,0,0,0,2.026-.62A2.8,2.8,0,0,0,9.5-4.736ZM17.148,0H14.316V-10.566h2.832Zm-3-13.3a1.39,1.39,0,0,1,.425-1.045,1.6,1.6,0,0,1,1.157-.41,1.6,1.6,0,0,1,1.152.41,1.382,1.382,0,0,1,.43,1.045,1.386,1.386,0,0,1-.435,1.055,1.6,1.6,0,0,1-1.147.41,1.6,1.6,0,0,1-1.147-.41A1.386,1.386,0,0,1,14.15-13.3ZM24.336.2A5.187,5.187,0,0,1,20.552-1.23a5.068,5.068,0,0,1-1.46-3.8V-5.3a6.383,6.383,0,0,1,.615-2.847,4.515,4.515,0,0,1,1.743-1.934,4.893,4.893,0,0,1,2.573-.679,4.385,4.385,0,0,1,3.413,1.367,5.555,5.555,0,0,1,1.245,3.877v1.152H21.953a2.622,2.622,0,0,0,.825,1.66,2.5,2.5,0,0,0,1.743.625A3.046,3.046,0,0,0,27.07-3.262l1.387,1.553a4.237,4.237,0,0,1-1.719,1.4A5.639,5.639,0,0,1,24.336.2Zm-.322-8.672a1.767,1.767,0,0,0-1.362.566,2.926,2.926,0,0,0-.669,1.621h3.926v-.225a2.086,2.086,0,0,0-.508-1.45A1.824,1.824,0,0,0,24.014-8.477Zm8.867-2.09.088,1.221a3.689,3.689,0,0,1,3.037-1.416,3.066,3.066,0,0,1,2.5.986,4.6,4.6,0,0,1,.84,2.949V0H36.523V-6.758a1.831,1.831,0,0,0-.391-1.3,1.749,1.749,0,0,0-1.3-.405,1.942,1.942,0,0,0-1.787,1.016V0H30.225V-10.566Zm13,8.486a1.851,1.851,0,0,0,1.27-.43,1.506,1.506,0,0,0,.508-1.143H50.3a3.62,3.62,0,0,1-.586,1.968A3.866,3.866,0,0,1,48.14-.3,4.936,4.936,0,0,1,45.928.2a4.587,4.587,0,0,1-3.574-1.44,5.7,5.7,0,0,1-1.309-3.979V-5.41a5.635,5.635,0,0,1,1.3-3.9,4.534,4.534,0,0,1,3.564-1.455,4.444,4.444,0,0,1,3.179,1.128,3.994,3.994,0,0,1,1.216,3H47.656a1.923,1.923,0,0,0-.508-1.333,1.7,1.7,0,0,0-1.289-.513,1.7,1.7,0,0,0-1.489.718,4.155,4.155,0,0,0-.5,2.329v.293a4.207,4.207,0,0,0,.5,2.344A1.722,1.722,0,0,0,45.879-2.08ZM54.893,0H52.061V-10.566h2.832Zm-3-13.3a1.39,1.39,0,0,1,.425-1.045,1.6,1.6,0,0,1,1.157-.41,1.6,1.6,0,0,1,1.152.41,1.382,1.382,0,0,1,.43,1.045,1.386,1.386,0,0,1-.435,1.055,1.6,1.6,0,0,1-1.147.41,1.6,1.6,0,0,1-1.147-.41A1.386,1.386,0,0,1,51.895-13.3ZM63.34,0a3.134,3.134,0,0,1-.283-.947A3.415,3.415,0,0,1,60.391.2a3.752,3.752,0,0,1-2.573-.9A2.89,2.89,0,0,1,56.8-2.969a2.986,2.986,0,0,1,1.245-2.578,6.144,6.144,0,0,1,3.6-.908h1.3v-.605a1.741,1.741,0,0,0-.376-1.172,1.479,1.479,0,0,0-1.187-.439,1.682,1.682,0,0,0-1.118.342,1.161,1.161,0,0,0-.405.938H57.031a2.835,2.835,0,0,1,.566-1.7,3.744,3.744,0,0,1,1.6-1.226,5.837,5.837,0,0,1,2.324-.444,4.611,4.611,0,0,1,3.1.981,3.433,3.433,0,0,1,1.147,2.759v4.58a5.052,5.052,0,0,0,.42,2.275V0ZM61.006-1.963a2.431,2.431,0,0,0,1.152-.278,1.828,1.828,0,0,0,.781-.747V-4.8H61.885q-2.119,0-2.256,1.465l-.01.166a1.13,1.13,0,0,0,.371.869A1.441,1.441,0,0,0,61.006-1.963ZM73.662-2.92a.909.909,0,0,0-.513-.815A5.824,5.824,0,0,0,71.5-4.268q-3.77-.791-3.77-3.2A2.9,2.9,0,0,1,68.9-9.819a4.707,4.707,0,0,1,3.052-.942,5.067,5.067,0,0,1,3.218.947,2.985,2.985,0,0,1,1.206,2.461H73.555a1.366,1.366,0,0,0-.391-1,1.653,1.653,0,0,0-1.221-.4,1.689,1.689,0,0,0-1.1.322,1.017,1.017,0,0,0-.391.82.87.87,0,0,0,.444.757,4.571,4.571,0,0,0,1.5.5,12.244,12.244,0,0,1,1.777.474,2.92,2.92,0,0,1,2.236,2.842A2.756,2.756,0,0,1,75.166-.7a5.35,5.35,0,0,1-3.2.894A5.588,5.588,0,0,1,69.6-.278a3.957,3.957,0,0,1-1.616-1.3A3.018,3.018,0,0,1,67.4-3.359h2.676a1.473,1.473,0,0,0,.557,1.152,2.208,2.208,0,0,0,1.387.4,2.044,2.044,0,0,0,1.226-.308A.957.957,0,0,0,73.662-2.92Z" transform="translate(874 9393)" fill="#21214b"/>
    <path id="Trazado_101024" data-name="Trazado 101024" d="M12.432-4.736a5.031,5.031,0,0,1-1.694,3.613A5.951,5.951,0,0,1,6.709.2a5.351,5.351,0,0,1-4.3-1.841A7.548,7.548,0,0,1,.84-6.7v-.869a8.523,8.523,0,0,1,.723-3.613,5.416,5.416,0,0,1,2.065-2.4,5.786,5.786,0,0,1,3.12-.835A5.8,5.8,0,0,1,10.713-13.1a5.407,5.407,0,0,1,1.738,3.7H9.521a2.97,2.97,0,0,0-.767-2,2.839,2.839,0,0,0-2.007-.62,2.489,2.489,0,0,0-2.192,1.05,5.883,5.883,0,0,0-.747,3.257v1.074a6.3,6.3,0,0,0,.7,3.369A2.443,2.443,0,0,0,6.709-2.2a2.892,2.892,0,0,0,2.026-.62A2.8,2.8,0,0,0,9.5-4.736Z" transform="translate(906 9360)" fill="#21214b"/>
    <path id="Trazado_101027" data-name="Trazado 101027" d="M4.385,0H1.455V-14.219h2.93ZM9.512-10.566,9.6-9.346a3.689,3.689,0,0,1,3.037-1.416,3.066,3.066,0,0,1,2.5.986,4.6,4.6,0,0,1,.84,2.949V0H13.154V-6.758a1.831,1.831,0,0,0-.391-1.3,1.749,1.749,0,0,0-1.3-.405A1.942,1.942,0,0,0,9.678-7.451V0H6.855V-10.566Zm8.193,5.205a6.193,6.193,0,0,1,1.157-3.916,3.75,3.75,0,0,1,3.12-1.484A3.289,3.289,0,0,1,24.688-9.57l.117-1h2.559V-.352a4.516,4.516,0,0,1-.63,2.412,4.045,4.045,0,0,1-1.772,1.563,6.231,6.231,0,0,1-2.676.537A5.794,5.794,0,0,1,20.02,3.7a4.021,4.021,0,0,1-1.67-1.2L19.6.781a3.306,3.306,0,0,0,2.559,1.182,2.42,2.42,0,0,0,1.748-.6,2.253,2.253,0,0,0,.625-1.7V-.908A3.264,3.264,0,0,1,21.963.2a3.74,3.74,0,0,1-3.081-1.489,6.191,6.191,0,0,1-1.177-3.95Zm2.822.205A3.846,3.846,0,0,0,21.1-2.905a1.834,1.834,0,0,0,1.582.815,1.961,1.961,0,0,0,1.846-.967V-7.5a1.956,1.956,0,0,0-1.826-.967,1.845,1.845,0,0,0-1.6.83A4.334,4.334,0,0,0,20.527-5.156ZM34.395.2A5.187,5.187,0,0,1,30.61-1.23a5.068,5.068,0,0,1-1.46-3.8V-5.3a6.383,6.383,0,0,1,.615-2.847,4.515,4.515,0,0,1,1.743-1.934,4.893,4.893,0,0,1,2.573-.679A4.385,4.385,0,0,1,37.5-9.395,5.555,5.555,0,0,1,38.74-5.518v1.152H32.012a2.622,2.622,0,0,0,.825,1.66,2.5,2.5,0,0,0,1.743.625,3.046,3.046,0,0,0,2.549-1.182l1.387,1.553A4.237,4.237,0,0,1,36.8-.308,5.639,5.639,0,0,1,34.395.2Zm-.322-8.672a1.767,1.767,0,0,0-1.362.566,2.926,2.926,0,0,0-.669,1.621h3.926v-.225a2.086,2.086,0,0,0-.508-1.45A1.824,1.824,0,0,0,34.072-8.477Zm8.867-2.09.088,1.221a3.689,3.689,0,0,1,3.037-1.416,3.066,3.066,0,0,1,2.5.986,4.6,4.6,0,0,1,.84,2.949V0H46.582V-6.758a1.831,1.831,0,0,0-.391-1.3,1.749,1.749,0,0,0-1.3-.405,1.942,1.942,0,0,0-1.787,1.016V0H40.283V-10.566ZM54.521,0H51.689V-10.566h2.832Zm-3-13.3a1.39,1.39,0,0,1,.425-1.045,1.6,1.6,0,0,1,1.157-.41,1.6,1.6,0,0,1,1.152.41,1.382,1.382,0,0,1,.43,1.045,1.386,1.386,0,0,1-.435,1.055,1.6,1.6,0,0,1-1.147.41,1.6,1.6,0,0,1-1.147-.41A1.386,1.386,0,0,1,51.523-13.3ZM61.709.2A5.187,5.187,0,0,1,57.925-1.23a5.068,5.068,0,0,1-1.46-3.8V-5.3a6.383,6.383,0,0,1,.615-2.847,4.515,4.515,0,0,1,1.743-1.934,4.893,4.893,0,0,1,2.573-.679A4.385,4.385,0,0,1,64.81-9.395a5.555,5.555,0,0,1,1.245,3.877v1.152H59.326a2.622,2.622,0,0,0,.825,1.66,2.5,2.5,0,0,0,1.743.625,3.046,3.046,0,0,0,2.549-1.182L65.83-1.709a4.237,4.237,0,0,1-1.719,1.4A5.639,5.639,0,0,1,61.709.2Zm-.322-8.672a1.767,1.767,0,0,0-1.362.566,2.926,2.926,0,0,0-.669,1.621h3.926v-.225a2.086,2.086,0,0,0-.508-1.45A1.824,1.824,0,0,0,61.387-8.477Zm12.207.557A7.667,7.667,0,0,0,72.578-8a2.067,2.067,0,0,0-2.1,1.084V0H67.656V-10.566h2.666l.078,1.26a2.615,2.615,0,0,1,2.354-1.455,2.957,2.957,0,0,1,.879.127ZM78,0H75.176V-10.566H78Zm-.83-14.854h3.076l-2.705,3.027H75.244ZM86.553,0a3.134,3.134,0,0,1-.283-.947A3.415,3.415,0,0,1,83.6.2,3.752,3.752,0,0,1,81.03-.7,2.89,2.89,0,0,1,80.01-2.969a2.986,2.986,0,0,1,1.245-2.578,6.144,6.144,0,0,1,3.6-.908h1.3v-.605a1.741,1.741,0,0,0-.376-1.172,1.479,1.479,0,0,0-1.187-.439,1.682,1.682,0,0,0-1.118.342,1.161,1.161,0,0,0-.405.938H80.244a2.835,2.835,0,0,1,.566-1.7,3.744,3.744,0,0,1,1.6-1.226,5.837,5.837,0,0,1,2.324-.444,4.611,4.611,0,0,1,3.1.981,3.433,3.433,0,0,1,1.147,2.759v4.58A5.052,5.052,0,0,0,89.4-.166V0ZM84.219-1.963a2.431,2.431,0,0,0,1.152-.278,1.828,1.828,0,0,0,.781-.747V-4.8H85.1q-2.119,0-2.256,1.465l-.01.166A1.13,1.13,0,0,0,83.2-2.3,1.441,1.441,0,0,0,84.219-1.963Z" transform="translate(630 9393)" fill="#fff"/>
    <path id="Trazado_101025" data-name="Trazado 101025" d="M9.824-6.162H4.2v3.809h6.6V0H1.27V-14.219h9.512v2.373H4.2v3.389H9.824Z" transform="translate(669 9360)" fill="#fff"/>
    <path id="Trazado_101012" data-name="Trazado 101012" d="M94,0A94,94,0,1,1,0,94,94,94,0,0,1,94,0Z" transform="translate(331 8895)" fill="#a2f5cd"/>
    <path id="Trazado_101033" data-name="Trazado 101033" d="M94,0A94,94,0,1,1,0,94,94,94,0,0,1,94,0Z" transform="translate(1066 8895)" fill="#a2f5cd"/>
    <path id="Trazado_101017" data-name="Trazado 101017" d="M94,0A94,94,0,1,1,0,94,94,94,0,0,1,94,0Z" transform="translate(706 8727)" fill="#a2f5cd"/>
    <path id="Trazado_101029" data-name="Trazado 101029" d="M94,0A94,94,0,1,1,0,94,94,94,0,0,1,94,0Z" transform="translate(388 9447)" fill="#a2f5cd"/>
    <path id="Trazado_101030" data-name="Trazado 101030" d="M94,0A94,94,0,1,1,0,94,94,94,0,0,1,94,0Z" transform="translate(1012 9447)" fill="#a2f5cd"/>
    <path id="Trazado_101019" data-name="Trazado 101019" d="M9,0H179a9,9,0,0,1,9,9V99a9,9,0,0,1-9,9H9a9,9,0,0,1-9-9V9A9,9,0,0,1,9,0Z" transform="translate(706 9200)" fill="#fff"/>
    <path id="Trazado_101020" data-name="Trazado 101020" d="M-39.126-6.162h-5.625v3.809h6.6V0h-9.531V-14.219h9.512v2.373h-6.582v3.389h5.625Zm1.885.8A6.368,6.368,0,0,1-36.133-9.3,3.6,3.6,0,0,1-33.1-10.762a3.236,3.236,0,0,1,2.549,1.152V-15h2.832V0h-2.549l-.137-1.123A3.321,3.321,0,0,1-33.12.2a3.587,3.587,0,0,1-2.993-1.47A6.573,6.573,0,0,1-37.241-5.361Zm2.822.205A4.16,4.16,0,0,0-33.9-2.881a1.687,1.687,0,0,0,1.5.791,1.889,1.889,0,0,0,1.846-1.1v-4.17a1.862,1.862,0,0,0-1.826-1.1Q-34.419-8.467-34.419-5.156ZM-19.2-1.074A3.539,3.539,0,0,1-22.095.2a3.338,3.338,0,0,1-2.593-.977A4.169,4.169,0,0,1-25.6-3.643v-6.924h2.822V-3.74q0,1.65,1.5,1.65a2.038,2.038,0,0,0,1.973-1v-7.48h2.832V0h-2.656ZM-9.946-2.08a1.851,1.851,0,0,0,1.27-.43,1.506,1.506,0,0,0,.508-1.143h2.646a3.62,3.62,0,0,1-.586,1.968A3.866,3.866,0,0,1-7.686-.3,4.936,4.936,0,0,1-9.9.2a4.587,4.587,0,0,1-3.574-1.44A5.7,5.7,0,0,1-14.78-5.225V-5.41a5.635,5.635,0,0,1,1.3-3.9,4.534,4.534,0,0,1,3.564-1.455A4.444,4.444,0,0,1-6.738-9.634a3.994,3.994,0,0,1,1.216,3H-8.169a1.923,1.923,0,0,0-.508-1.333,1.7,1.7,0,0,0-1.289-.513,1.7,1.7,0,0,0-1.489.718,4.155,4.155,0,0,0-.5,2.329v.293a4.207,4.207,0,0,0,.5,2.344A1.722,1.722,0,0,0-9.946-2.08ZM2.212,0a3.134,3.134,0,0,1-.283-.947A3.415,3.415,0,0,1-.737.2,3.752,3.752,0,0,1-3.311-.7,2.89,2.89,0,0,1-4.331-2.969,2.986,2.986,0,0,1-3.086-5.547a6.144,6.144,0,0,1,3.6-.908h1.3v-.605a1.741,1.741,0,0,0-.376-1.172A1.479,1.479,0,0,0,.249-8.672,1.682,1.682,0,0,0-.869-8.33a1.161,1.161,0,0,0-.405.938H-4.1a2.835,2.835,0,0,1,.566-1.7,3.744,3.744,0,0,1,1.6-1.226A5.837,5.837,0,0,1,.4-10.762a4.611,4.611,0,0,1,3.1.981A3.433,3.433,0,0,1,4.644-7.021v4.58a5.052,5.052,0,0,0,.42,2.275V0ZM-.122-1.963A2.431,2.431,0,0,0,1.03-2.241a1.828,1.828,0,0,0,.781-.747V-4.8H.757Q-1.362-4.8-1.5-3.34l-.01.166a1.13,1.13,0,0,0,.371.869A1.441,1.441,0,0,0-.122-1.963ZM11.206-2.08a1.851,1.851,0,0,0,1.27-.43,1.506,1.506,0,0,0,.508-1.143H15.63a3.62,3.62,0,0,1-.586,1.968A3.866,3.866,0,0,1,13.467-.3,4.936,4.936,0,0,1,11.255.2a4.587,4.587,0,0,1-3.574-1.44A5.7,5.7,0,0,1,6.372-5.225V-5.41a5.635,5.635,0,0,1,1.3-3.9,4.534,4.534,0,0,1,3.564-1.455,4.444,4.444,0,0,1,3.179,1.128,3.994,3.994,0,0,1,1.216,3H12.983a1.923,1.923,0,0,0-.508-1.333,1.7,1.7,0,0,0-1.289-.513A1.7,1.7,0,0,0,9.7-7.759a4.155,4.155,0,0,0-.5,2.329v.293a4.207,4.207,0,0,0,.5,2.344A1.722,1.722,0,0,0,11.206-2.08ZM20.22,0H17.388V-10.566H20.22Zm-3-13.3a1.39,1.39,0,0,1,.425-1.045,1.6,1.6,0,0,1,1.157-.41,1.6,1.6,0,0,1,1.152.41,1.382,1.382,0,0,1,.43,1.045,1.386,1.386,0,0,1-.435,1.055,1.6,1.6,0,0,1-1.147.41,1.6,1.6,0,0,1-1.147-.41A1.386,1.386,0,0,1,17.222-13.3ZM22.1-5.381a6.266,6.266,0,0,1,.605-2.8,4.432,4.432,0,0,1,1.743-1.9,5.086,5.086,0,0,1,2.642-.674,4.812,4.812,0,0,1,3.491,1.309A5.252,5.252,0,0,1,32.095-5.9l.02.723a5.523,5.523,0,0,1-1.357,3.9A4.718,4.718,0,0,1,27.114.2,4.742,4.742,0,0,1,23.467-1.27,5.62,5.62,0,0,1,22.1-5.254Zm2.822.205a3.939,3.939,0,0,0,.566,2.3,1.869,1.869,0,0,0,1.621.8,1.874,1.874,0,0,0,1.6-.786,4.31,4.31,0,0,0,.576-2.515,3.9,3.9,0,0,0-.576-2.285,1.874,1.874,0,0,0-1.621-.811,1.843,1.843,0,0,0-1.6.806A4.383,4.383,0,0,0,24.927-5.176ZM27.651-15h3.076l-2.705,3.027H25.728Zm8.8,4.434.088,1.221a3.689,3.689,0,0,1,3.037-1.416,3.066,3.066,0,0,1,2.5.986,4.6,4.6,0,0,1,.84,2.949V0H40.093V-6.758a1.831,1.831,0,0,0-.391-1.3,1.749,1.749,0,0,0-1.3-.405,1.942,1.942,0,0,0-1.787,1.016V0H33.794V-10.566ZM-18.076,20.27A1.5,1.5,0,0,0-18.662,19a7.685,7.685,0,0,0-2.109-.937,14.953,14.953,0,0,1-2.412-.972,3.941,3.941,0,0,1-2.422-3.525,3.434,3.434,0,0,1,.649-2.056,4.236,4.236,0,0,1,1.865-1.411,7.02,7.02,0,0,1,2.729-.508,6.39,6.39,0,0,1,2.715.552A4.323,4.323,0,0,1-15.8,11.7a4.076,4.076,0,0,1,.659,2.285h-2.93a1.917,1.917,0,0,0-.615-1.519,2.529,2.529,0,0,0-1.729-.542,2.7,2.7,0,0,0-1.67.454,1.432,1.432,0,0,0-.6,1.2,1.372,1.372,0,0,0,.7,1.162,7.889,7.889,0,0,0,2.056.879,8.882,8.882,0,0,1,3.643,1.865,3.715,3.715,0,0,1,1.143,2.773,3.422,3.422,0,0,1-1.4,2.9,6.113,6.113,0,0,1-3.76,1.05,7.26,7.26,0,0,1-2.988-.6,4.729,4.729,0,0,1-2.056-1.646,4.214,4.214,0,0,1-.708-2.422h2.939q0,2.354,2.813,2.354a2.736,2.736,0,0,0,1.631-.425A1.382,1.382,0,0,0-18.076,20.27Zm15.625-8.115H-6.807V24h-2.93V12.154h-4.3V9.781H-2.451ZM7.773,17.838H2.148v3.809h6.6V24H-.781V9.781H8.73v2.373H2.148v3.389H7.773ZM14.3,9.781l3.652,10.313L21.582,9.781H25.43V24H22.49V20.113l.293-6.709L18.945,24H16.934L13.105,13.414l.293,6.7V24h-2.93V9.781Z" transform="translate(795 9249)" fill="#12263f"/>
    <path id="Trazado_101031" data-name="Trazado 101031" d="M-13.828-6.787a8.583,8.583,0,0,1-.742,3.682A5.589,5.589,0,0,1-16.694-.664,5.875,5.875,0,0,1-19.863.2a5.915,5.915,0,0,1-3.154-.85,5.644,5.644,0,0,1-2.148-2.427,8.338,8.338,0,0,1-.771-3.628v-.7a8.538,8.538,0,0,1,.757-3.7,5.635,5.635,0,0,1,2.139-2.451,5.883,5.883,0,0,1,3.159-.854,5.883,5.883,0,0,1,3.159.854,5.635,5.635,0,0,1,2.139,2.451,8.514,8.514,0,0,1,.757,3.687ZM-16.8-7.432a5.984,5.984,0,0,0-.8-3.4,2.61,2.61,0,0,0-2.285-1.162,2.611,2.611,0,0,0-2.275,1.147,5.915,5.915,0,0,0-.811,3.364v.693a6.058,6.058,0,0,0,.8,3.379,2.6,2.6,0,0,0,2.3,1.2A2.579,2.579,0,0,0-17.6-3.364a6.023,6.023,0,0,0,.8-3.374Zm8.291-5.732v2.6H-6.7V-8.5H-8.506v5.273a1.259,1.259,0,0,0,.225.84,1.128,1.128,0,0,0,.859.254,4.5,4.5,0,0,0,.83-.068V-.059A5.81,5.81,0,0,1-8.3.2q-2.969,0-3.027-3V-8.5h-1.543v-2.07h1.543v-2.6ZM.811-7.92A7.667,7.667,0,0,0-.205-8,2.067,2.067,0,0,0-2.3-6.914V0H-5.127V-10.566h2.666l.078,1.26A2.615,2.615,0,0,1-.029-10.762a2.957,2.957,0,0,1,.879.127ZM8,0a3.134,3.134,0,0,1-.283-.947A3.415,3.415,0,0,1,5.049.2,3.752,3.752,0,0,1,2.476-.7,2.89,2.89,0,0,1,1.455-2.969,2.986,2.986,0,0,1,2.7-5.547a6.144,6.144,0,0,1,3.6-.908H7.6v-.605a1.741,1.741,0,0,0-.376-1.172,1.479,1.479,0,0,0-1.187-.439,1.682,1.682,0,0,0-1.118.342,1.161,1.161,0,0,0-.405.938H1.689a2.835,2.835,0,0,1,.566-1.7,3.744,3.744,0,0,1,1.6-1.226,5.837,5.837,0,0,1,2.324-.444,4.611,4.611,0,0,1,3.1.981A3.433,3.433,0,0,1,10.43-7.021v4.58a5.052,5.052,0,0,0,.42,2.275V0ZM5.664-1.963a2.431,2.431,0,0,0,1.152-.278A1.828,1.828,0,0,0,7.6-2.988V-4.8H6.543Q4.424-4.8,4.287-3.34l-.01.166a1.13,1.13,0,0,0,.371.869A1.441,1.441,0,0,0,5.664-1.963ZM18.32-2.92a.909.909,0,0,0-.513-.815,5.824,5.824,0,0,0-1.646-.532q-3.77-.791-3.77-3.2A2.9,2.9,0,0,1,13.56-9.819a4.707,4.707,0,0,1,3.052-.942,5.067,5.067,0,0,1,3.218.947,2.985,2.985,0,0,1,1.206,2.461H18.213a1.366,1.366,0,0,0-.391-1,1.653,1.653,0,0,0-1.221-.4,1.689,1.689,0,0,0-1.1.322,1.017,1.017,0,0,0-.391.82.87.87,0,0,0,.444.757,4.571,4.571,0,0,0,1.5.5,12.244,12.244,0,0,1,1.777.474,2.92,2.92,0,0,1,2.236,2.842A2.756,2.756,0,0,1,19.824-.7a5.35,5.35,0,0,1-3.2.894,5.588,5.588,0,0,1-2.358-.474,3.957,3.957,0,0,1-1.616-1.3,3.018,3.018,0,0,1-.586-1.782h2.676a1.473,1.473,0,0,0,.557,1.152,2.208,2.208,0,0,0,1.387.4,2.044,2.044,0,0,0,1.226-.308A.957.957,0,0,0,18.32-2.92ZM-44.873,21.07H-50.01L-50.986,24H-54.1l5.293-14.219h2.715L-40.771,24h-3.115ZM-49.219,18.7h3.555l-1.787-5.322Zm15.313,2.383a.909.909,0,0,0-.513-.815,5.824,5.824,0,0,0-1.646-.532q-3.77-.791-3.77-3.2a2.9,2.9,0,0,1,1.167-2.349,4.707,4.707,0,0,1,3.052-.942,5.067,5.067,0,0,1,3.218.947,2.985,2.985,0,0,1,1.206,2.461h-2.822a1.366,1.366,0,0,0-.391-1,1.653,1.653,0,0,0-1.221-.4,1.689,1.689,0,0,0-1.1.322,1.017,1.017,0,0,0-.391.82.87.87,0,0,0,.444.757,4.571,4.571,0,0,0,1.5.5,12.244,12.244,0,0,1,1.777.474,2.92,2.92,0,0,1,2.236,2.842A2.756,2.756,0,0,1-32.4,23.3a5.35,5.35,0,0,1-3.2.894,5.588,5.588,0,0,1-2.358-.474,3.957,3.957,0,0,1-1.616-1.3,3.018,3.018,0,0,1-.586-1.782h2.676a1.473,1.473,0,0,0,.557,1.152,2.208,2.208,0,0,0,1.387.4,2.044,2.044,0,0,0,1.226-.308A.957.957,0,0,0-33.906,21.08ZM-26.367,24H-29.2V13.434h2.832Zm-3-13.3a1.39,1.39,0,0,1,.425-1.045,1.6,1.6,0,0,1,1.157-.41,1.6,1.6,0,0,1,1.152.41A1.382,1.382,0,0,1-26.2,10.7a1.386,1.386,0,0,1-.435,1.055,1.6,1.6,0,0,1-1.147.41,1.6,1.6,0,0,1-1.147-.41A1.386,1.386,0,0,1-29.365,10.7Zm4.912,7.939A6.193,6.193,0,0,1-23.3,14.723a3.75,3.75,0,0,1,3.12-1.484,3.289,3.289,0,0,1,2.705,1.191l.117-1h2.559V23.648a4.516,4.516,0,0,1-.63,2.412A4.045,4.045,0,0,1-17.2,27.623a6.231,6.231,0,0,1-2.676.537,5.794,5.794,0,0,1-2.266-.464,4.021,4.021,0,0,1-1.67-1.2l1.25-1.719A3.306,3.306,0,0,0-20,25.963a2.42,2.42,0,0,0,1.748-.6,2.253,2.253,0,0,0,.625-1.7v-.566A3.264,3.264,0,0,1-20.2,24.2a3.74,3.74,0,0,1-3.081-1.489,6.191,6.191,0,0,1-1.177-3.95Zm2.822.205a3.846,3.846,0,0,0,.576,2.251,1.834,1.834,0,0,0,1.582.815,1.961,1.961,0,0,0,1.846-.967V16.5a1.956,1.956,0,0,0-1.826-.967,1.845,1.845,0,0,0-1.6.83A4.334,4.334,0,0,0-21.631,18.844Zm11.6-5.41.088,1.221A3.689,3.689,0,0,1-6.9,13.238a3.066,3.066,0,0,1,2.5.986,4.6,4.6,0,0,1,.84,2.949V24H-6.387V17.242a1.831,1.831,0,0,0-.391-1.3,1.749,1.749,0,0,0-1.3-.405,1.942,1.942,0,0,0-1.787,1.016V24h-2.822V13.434ZM4.7,24a3.134,3.134,0,0,1-.283-.947A3.415,3.415,0,0,1,1.748,24.2a3.752,3.752,0,0,1-2.573-.9,2.89,2.89,0,0,1-1.021-2.266A2.986,2.986,0,0,1-.6,18.453,6.144,6.144,0,0,1,3,17.545H4.3v-.605a1.741,1.741,0,0,0-.376-1.172,1.479,1.479,0,0,0-1.187-.439,1.682,1.682,0,0,0-1.118.342,1.161,1.161,0,0,0-.405.938H-1.611a2.835,2.835,0,0,1,.566-1.7,3.744,3.744,0,0,1,1.6-1.226,5.837,5.837,0,0,1,2.324-.444,4.611,4.611,0,0,1,3.1.981,3.433,3.433,0,0,1,1.147,2.759v4.58a5.052,5.052,0,0,0,.42,2.275V24ZM2.363,22.037a2.431,2.431,0,0,0,1.152-.278,1.828,1.828,0,0,0,.781-.747V19.2H3.242Q1.123,19.2.986,20.66l-.01.166a1.13,1.13,0,0,0,.371.869A1.441,1.441,0,0,0,2.363,22.037Zm10.313-11.2v2.6h1.807V15.5H12.676v5.273a1.259,1.259,0,0,0,.225.84,1.128,1.128,0,0,0,.859.254,4.5,4.5,0,0,0,.83-.068v2.139a5.81,5.81,0,0,1-1.709.254q-2.969,0-3.027-3V15.5H8.311v-2.07H9.854v-2.6Zm9.707,12.09a3.539,3.539,0,0,1-2.891,1.27,3.338,3.338,0,0,1-2.593-.977,4.169,4.169,0,0,1-.913-2.861V13.434h2.822V20.26q0,1.65,1.5,1.65a2.038,2.038,0,0,0,1.973-1v-7.48h2.832V24H22.461Zm10.8-6.846A7.667,7.667,0,0,0,32.168,16a2.067,2.067,0,0,0-2.1,1.084V24H27.246V13.434h2.666l.078,1.26a2.615,2.615,0,0,1,2.354-1.455,2.957,2.957,0,0,1,.879.127ZM40.371,24a3.134,3.134,0,0,1-.283-.947A3.415,3.415,0,0,1,37.422,24.2a3.752,3.752,0,0,1-2.573-.9,2.89,2.89,0,0,1-1.021-2.266,2.986,2.986,0,0,1,1.245-2.578,6.144,6.144,0,0,1,3.6-.908h1.3v-.605a1.741,1.741,0,0,0-.376-1.172,1.479,1.479,0,0,0-1.187-.439,1.682,1.682,0,0,0-1.118.342,1.161,1.161,0,0,0-.405.938H34.063a2.835,2.835,0,0,1,.566-1.7,3.744,3.744,0,0,1,1.6-1.226,5.837,5.837,0,0,1,2.324-.444,4.611,4.611,0,0,1,3.1.981A3.433,3.433,0,0,1,42.8,16.979v4.58a5.052,5.052,0,0,0,.42,2.275V24Zm-2.334-1.963a2.431,2.431,0,0,0,1.152-.278,1.828,1.828,0,0,0,.781-.747V19.2H38.916q-2.119,0-2.256,1.465l-.01.166a1.13,1.13,0,0,0,.371.869A1.441,1.441,0,0,0,38.037,22.037Zm12.656-.957a.909.909,0,0,0-.513-.815,5.824,5.824,0,0,0-1.646-.532q-3.77-.791-3.77-3.2a2.9,2.9,0,0,1,1.167-2.349,4.707,4.707,0,0,1,3.052-.942,5.067,5.067,0,0,1,3.218.947,2.985,2.985,0,0,1,1.206,2.461H50.586a1.366,1.366,0,0,0-.391-1,1.653,1.653,0,0,0-1.221-.4,1.689,1.689,0,0,0-1.1.322,1.017,1.017,0,0,0-.391.82.87.87,0,0,0,.444.757,4.571,4.571,0,0,0,1.5.5,12.244,12.244,0,0,1,1.777.474,2.92,2.92,0,0,1,2.236,2.842A2.756,2.756,0,0,1,52.2,23.3a5.35,5.35,0,0,1-3.2.894,5.588,5.588,0,0,1-2.358-.474,3.957,3.957,0,0,1-1.616-1.3,3.018,3.018,0,0,1-.586-1.782h2.676a1.473,1.473,0,0,0,.557,1.152,2.208,2.208,0,0,0,1.387.4,2.044,2.044,0,0,0,1.226-.308A.957.957,0,0,0,50.693,21.08Z" transform="translate(1106 9536)" fill="#12263f"/>
    <path id="Trazado_101032" data-name="Trazado 101032" d="M-36.636-6.162h-5.625v3.809h6.6V0H-45.19V-14.219h9.512v2.373h-6.582v3.389h5.625Zm1.885.8A6.368,6.368,0,0,1-33.643-9.3a3.6,3.6,0,0,1,3.032-1.465,3.236,3.236,0,0,1,2.549,1.152V-15h2.832V0h-2.549l-.137-1.123A3.321,3.321,0,0,1-30.63.2a3.587,3.587,0,0,1-2.993-1.47A6.573,6.573,0,0,1-34.751-5.361Zm2.822.205a4.16,4.16,0,0,0,.518,2.275,1.687,1.687,0,0,0,1.5.791,1.889,1.889,0,0,0,1.846-1.1v-4.17a1.862,1.862,0,0,0-1.826-1.1Q-31.929-8.467-31.929-5.156Zm15.215,4.082A3.539,3.539,0,0,1-19.6.2,3.338,3.338,0,0,1-22.2-.781a4.169,4.169,0,0,1-.913-2.861v-6.924h2.822V-3.74q0,1.65,1.5,1.65a2.038,2.038,0,0,0,1.973-1v-7.48h2.832V0h-2.656ZM-7.456-2.08a1.851,1.851,0,0,0,1.27-.43,1.506,1.506,0,0,0,.508-1.143h2.646a3.62,3.62,0,0,1-.586,1.968A3.866,3.866,0,0,1-5.2-.3,4.936,4.936,0,0,1-7.407.2a4.587,4.587,0,0,1-3.574-1.44A5.7,5.7,0,0,1-12.29-5.225V-5.41a5.635,5.635,0,0,1,1.3-3.9,4.534,4.534,0,0,1,3.564-1.455A4.444,4.444,0,0,1-4.248-9.634a3.994,3.994,0,0,1,1.216,3H-5.679a1.923,1.923,0,0,0-.508-1.333,1.7,1.7,0,0,0-1.289-.513,1.7,1.7,0,0,0-1.489.718,4.155,4.155,0,0,0-.5,2.329v.293a4.207,4.207,0,0,0,.5,2.344A1.722,1.722,0,0,0-7.456-2.08ZM4.7,0a3.134,3.134,0,0,1-.283-.947A3.415,3.415,0,0,1,1.753.2,3.752,3.752,0,0,1-.82-.7,2.89,2.89,0,0,1-1.841-2.969,2.986,2.986,0,0,1-.6-5.547,6.144,6.144,0,0,1,3-6.455H4.3v-.605a1.741,1.741,0,0,0-.376-1.172,1.479,1.479,0,0,0-1.187-.439,1.682,1.682,0,0,0-1.118.342,1.161,1.161,0,0,0-.405.938H-1.606a2.835,2.835,0,0,1,.566-1.7,3.744,3.744,0,0,1,1.6-1.226,5.837,5.837,0,0,1,2.324-.444,4.611,4.611,0,0,1,3.1.981A3.433,3.433,0,0,1,7.134-7.021v4.58a5.052,5.052,0,0,0,.42,2.275V0ZM2.368-1.963a2.431,2.431,0,0,0,1.152-.278A1.828,1.828,0,0,0,4.3-2.988V-4.8H3.247Q1.128-4.8.991-3.34l-.01.166a1.13,1.13,0,0,0,.371.869A1.441,1.441,0,0,0,2.368-1.963ZM13.7-2.08a1.851,1.851,0,0,0,1.27-.43,1.506,1.506,0,0,0,.508-1.143H18.12a3.62,3.62,0,0,1-.586,1.968A3.866,3.866,0,0,1,15.957-.3,4.936,4.936,0,0,1,13.745.2a4.587,4.587,0,0,1-3.574-1.44A5.7,5.7,0,0,1,8.862-5.225V-5.41a5.635,5.635,0,0,1,1.3-3.9,4.534,4.534,0,0,1,3.564-1.455A4.444,4.444,0,0,1,16.9-9.634a3.994,3.994,0,0,1,1.216,3H15.474a1.923,1.923,0,0,0-.508-1.333,1.7,1.7,0,0,0-1.289-.513,1.7,1.7,0,0,0-1.489.718,4.155,4.155,0,0,0-.5,2.329v.293a4.207,4.207,0,0,0,.5,2.344A1.722,1.722,0,0,0,13.7-2.08ZM22.71,0H19.878V-10.566H22.71Zm-3-13.3a1.39,1.39,0,0,1,.425-1.045,1.6,1.6,0,0,1,1.157-.41,1.6,1.6,0,0,1,1.152.41,1.382,1.382,0,0,1,.43,1.045,1.386,1.386,0,0,1-.435,1.055,1.6,1.6,0,0,1-1.147.41,1.6,1.6,0,0,1-1.147-.41A1.386,1.386,0,0,1,19.712-13.3Zm4.883,7.92a6.266,6.266,0,0,1,.605-2.8,4.432,4.432,0,0,1,1.743-1.9,5.086,5.086,0,0,1,2.642-.674,4.812,4.812,0,0,1,3.491,1.309A5.252,5.252,0,0,1,34.585-5.9l.02.723a5.523,5.523,0,0,1-1.357,3.9A4.718,4.718,0,0,1,29.6.2,4.742,4.742,0,0,1,25.957-1.27a5.62,5.62,0,0,1-1.362-3.984Zm2.822.205a3.939,3.939,0,0,0,.566,2.3,1.869,1.869,0,0,0,1.621.8,1.874,1.874,0,0,0,1.6-.786,4.31,4.31,0,0,0,.576-2.515,3.9,3.9,0,0,0-.576-2.285,1.874,1.874,0,0,0-1.621-.811,1.843,1.843,0,0,0-1.6.806A4.383,4.383,0,0,0,27.417-5.176ZM30.142-15h3.076l-2.705,3.027H28.218Zm8.8,4.434.088,1.221a3.689,3.689,0,0,1,3.037-1.416,3.066,3.066,0,0,1,2.5.986,4.6,4.6,0,0,1,.84,2.949V0H42.583V-6.758a1.831,1.831,0,0,0-.391-1.3,1.749,1.749,0,0,0-1.3-.405,1.942,1.942,0,0,0-1.787,1.016V0H36.284V-10.566Zm-55.7,28.756h-5.625V24h-2.93V9.781h9.258v2.373h-6.328v3.672h5.625ZM-11.5,24h-2.822V13.434H-11.5Zm-.83-14.854h3.076l-2.705,3.027h-2.295ZM-3.345,21.08a.909.909,0,0,0-.513-.815A5.824,5.824,0,0,0-5.5,19.732q-3.77-.791-3.77-3.2a2.9,2.9,0,0,1,1.167-2.349,4.707,4.707,0,0,1,3.052-.942,5.067,5.067,0,0,1,3.218.947A2.985,2.985,0,0,1-.63,16.646H-3.452a1.366,1.366,0,0,0-.391-1,1.653,1.653,0,0,0-1.221-.4,1.689,1.689,0,0,0-1.1.322,1.017,1.017,0,0,0-.391.82.87.87,0,0,0,.444.757,4.571,4.571,0,0,0,1.5.5,12.244,12.244,0,0,1,1.777.474A2.92,2.92,0,0,1-.6,20.963,2.756,2.756,0,0,1-1.841,23.3a5.35,5.35,0,0,1-3.2.894A5.588,5.588,0,0,1-7.4,23.722a3.957,3.957,0,0,1-1.616-1.3A3.018,3.018,0,0,1-9.6,20.641h2.676a1.473,1.473,0,0,0,.557,1.152,2.208,2.208,0,0,0,1.387.4,2.044,2.044,0,0,0,1.226-.308A.957.957,0,0,0-3.345,21.08ZM4.194,24H1.362V13.434H4.194Zm-3-13.3a1.39,1.39,0,0,1,.425-1.045,1.6,1.6,0,0,1,1.157-.41,1.6,1.6,0,0,1,1.152.41,1.491,1.491,0,0,1,0,2.1,1.6,1.6,0,0,1-1.147.41,1.6,1.6,0,0,1-1.147-.41A1.386,1.386,0,0,1,1.2,10.7ZM10.913,21.92a1.851,1.851,0,0,0,1.27-.43,1.506,1.506,0,0,0,.508-1.143h2.646a3.62,3.62,0,0,1-.586,1.968A3.866,3.866,0,0,1,13.174,23.7a4.936,4.936,0,0,1-2.212.493,4.587,4.587,0,0,1-3.574-1.44,5.7,5.7,0,0,1-1.309-3.979V18.59a5.635,5.635,0,0,1,1.3-3.9,4.534,4.534,0,0,1,3.564-1.455,4.444,4.444,0,0,1,3.179,1.128,3.994,3.994,0,0,1,1.216,3H12.69a1.923,1.923,0,0,0-.508-1.333,1.7,1.7,0,0,0-1.289-.513,1.7,1.7,0,0,0-1.489.718,4.155,4.155,0,0,0-.5,2.329v.293a4.207,4.207,0,0,0,.5,2.344A1.722,1.722,0,0,0,10.913,21.92ZM23.071,24a3.134,3.134,0,0,1-.283-.947A3.415,3.415,0,0,1,20.122,24.2a3.752,3.752,0,0,1-2.573-.9,2.89,2.89,0,0,1-1.021-2.266,2.986,2.986,0,0,1,1.245-2.578,6.144,6.144,0,0,1,3.6-.908h1.3v-.605a1.741,1.741,0,0,0-.376-1.172,1.479,1.479,0,0,0-1.187-.439,1.682,1.682,0,0,0-1.118.342,1.161,1.161,0,0,0-.405.938H16.763a2.835,2.835,0,0,1,.566-1.7,3.744,3.744,0,0,1,1.6-1.226,5.837,5.837,0,0,1,2.324-.444,4.611,4.611,0,0,1,3.1.981A3.433,3.433,0,0,1,25.5,16.979v4.58a5.052,5.052,0,0,0,.42,2.275V24Zm-2.334-1.963a2.431,2.431,0,0,0,1.152-.278,1.828,1.828,0,0,0,.781-.747V19.2H21.616q-2.119,0-2.256,1.465l-.01.166a1.13,1.13,0,0,0,.371.869A1.441,1.441,0,0,0,20.737,22.037Z" transform="translate(482 9536)" fill="#12263f"/>
    <path id="Trazado_101013" data-name="Trazado 101013" d="M-15.249-2.93h-5.137L-21.362,0h-3.115l5.293-14.219h2.715L-11.147,0h-3.115ZM-19.595-5.3h3.555l-1.787-5.322ZM-4.067-7.92A7.667,7.667,0,0,0-5.083-8a2.067,2.067,0,0,0-2.1,1.084V0H-10V-10.566h2.666l.078,1.26a2.615,2.615,0,0,1,2.354-1.455,2.957,2.957,0,0,1,.879.127Zm5.225-5.244v2.6H2.964V-8.5H1.157v5.273a1.259,1.259,0,0,0,.225.84,1.128,1.128,0,0,0,.859.254,4.5,4.5,0,0,0,.83-.068V-.059A5.81,5.81,0,0,1,1.362.2q-2.969,0-3.027-3V-8.5H-3.208v-2.07h1.543v-2.6ZM9.4.2A5.187,5.187,0,0,1,5.615-1.23a5.068,5.068,0,0,1-1.46-3.8V-5.3a6.383,6.383,0,0,1,.615-2.847,4.515,4.515,0,0,1,1.743-1.934,4.893,4.893,0,0,1,2.573-.679A4.385,4.385,0,0,1,12.5-9.395a5.555,5.555,0,0,1,1.245,3.877v1.152H7.017a2.622,2.622,0,0,0,.825,1.66,2.5,2.5,0,0,0,1.743.625,3.046,3.046,0,0,0,2.549-1.182l1.387,1.553A4.237,4.237,0,0,1,11.8-.308,5.639,5.639,0,0,1,9.4.2ZM9.077-8.477a1.767,1.767,0,0,0-1.362.566,2.926,2.926,0,0,0-.669,1.621h3.926v-.225a2.086,2.086,0,0,0-.508-1.45A1.824,1.824,0,0,0,9.077-8.477ZM21.069-2.92a.909.909,0,0,0-.513-.815,5.824,5.824,0,0,0-1.646-.532q-3.77-.791-3.77-3.2a2.9,2.9,0,0,1,1.167-2.349,4.707,4.707,0,0,1,3.052-.942,5.067,5.067,0,0,1,3.218.947,2.985,2.985,0,0,1,1.206,2.461H20.962a1.366,1.366,0,0,0-.391-1,1.653,1.653,0,0,0-1.221-.4,1.689,1.689,0,0,0-1.1.322,1.017,1.017,0,0,0-.391.82.87.87,0,0,0,.444.757,4.571,4.571,0,0,0,1.5.5,12.244,12.244,0,0,1,1.777.474,2.92,2.92,0,0,1,2.236,2.842A2.756,2.756,0,0,1,22.573-.7,5.35,5.35,0,0,1,19.37.2a5.588,5.588,0,0,1-2.358-.474,3.957,3.957,0,0,1-1.616-1.3,3.018,3.018,0,0,1-.586-1.782h2.676a1.473,1.473,0,0,0,.557,1.152,2.208,2.208,0,0,0,1.387.4,2.044,2.044,0,0,0,1.226-.308A.957.957,0,0,0,21.069-2.92Z" transform="translate(425 8985)" fill="#12263f"/>
    <path id="Trazado_101018" data-name="Trazado 101018" d="M-36.89-2.354h6.221V0h-9.15V-14.219h2.93ZM-24.312.2A5.187,5.187,0,0,1-28.1-1.23a5.068,5.068,0,0,1-1.46-3.8V-5.3a6.383,6.383,0,0,1,.615-2.847A4.515,4.515,0,0,1-27.2-10.083a4.893,4.893,0,0,1,2.573-.679,4.385,4.385,0,0,1,3.413,1.367,5.555,5.555,0,0,1,1.245,3.877v1.152h-6.729a2.622,2.622,0,0,0,.825,1.66,2.5,2.5,0,0,0,1.743.625,3.046,3.046,0,0,0,2.549-1.182l1.387,1.553a4.237,4.237,0,0,1-1.719,1.4A5.639,5.639,0,0,1-24.312.2Zm-.322-8.672A1.767,1.767,0,0,0-26-7.91a2.926,2.926,0,0,0-.669,1.621h3.926v-.225a2.086,2.086,0,0,0-.508-1.45A1.824,1.824,0,0,0-24.634-8.477Zm8.867-2.09.088,1.221a3.689,3.689,0,0,1,3.037-1.416,3.066,3.066,0,0,1,2.5.986A4.6,4.6,0,0,1-9.3-6.826V0h-2.822V-6.758a1.831,1.831,0,0,0-.391-1.3,1.749,1.749,0,0,0-1.3-.405A1.942,1.942,0,0,0-15.6-7.451V0h-2.822V-10.566Zm8.193,5.205A6.193,6.193,0,0,1-6.416-9.277,3.75,3.75,0,0,1-3.3-10.762,3.289,3.289,0,0,1-.591-9.57l.117-1H2.085V-.352a4.516,4.516,0,0,1-.63,2.412A4.045,4.045,0,0,1-.317,3.623a6.231,6.231,0,0,1-2.676.537A5.794,5.794,0,0,1-5.259,3.7a4.021,4.021,0,0,1-1.67-1.2L-5.679.781A3.306,3.306,0,0,0-3.12,1.963a2.42,2.42,0,0,0,1.748-.6,2.253,2.253,0,0,0,.625-1.7V-.908A3.264,3.264,0,0,1-3.315.2,3.74,3.74,0,0,1-6.4-1.294a6.191,6.191,0,0,1-1.177-3.95Zm2.822.205a3.846,3.846,0,0,0,.576,2.251,1.834,1.834,0,0,0,1.582.815A1.961,1.961,0,0,0-.747-3.057V-7.5a1.956,1.956,0,0,0-1.826-.967,1.845,1.845,0,0,0-1.6.83A4.334,4.334,0,0,0-4.751-5.156ZM10.581-1.074A3.539,3.539,0,0,1,7.69.2,3.338,3.338,0,0,1,5.1-.781a4.169,4.169,0,0,1-.913-2.861v-6.924H7.007V-3.74q0,1.65,1.5,1.65a2.038,2.038,0,0,0,1.973-1v-7.48h2.832V0H10.659ZM21.567,0a3.134,3.134,0,0,1-.283-.947A3.415,3.415,0,0,1,18.618.2a3.752,3.752,0,0,1-2.573-.9,2.89,2.89,0,0,1-1.021-2.266A2.986,2.986,0,0,1,16.27-5.547a6.144,6.144,0,0,1,3.6-.908h1.3v-.605a1.741,1.741,0,0,0-.376-1.172A1.479,1.479,0,0,0,19.6-8.672a1.682,1.682,0,0,0-1.118.342,1.161,1.161,0,0,0-.405.938H15.259a2.835,2.835,0,0,1,.566-1.7,3.744,3.744,0,0,1,1.6-1.226,5.837,5.837,0,0,1,2.324-.444,4.611,4.611,0,0,1,3.1.981A3.433,3.433,0,0,1,24-7.021v4.58a5.052,5.052,0,0,0,.42,2.275V0ZM19.233-1.963a2.431,2.431,0,0,0,1.152-.278,1.828,1.828,0,0,0,.781-.747V-4.8H20.112q-2.119,0-2.256,1.465l-.01.166a1.13,1.13,0,0,0,.371.869A1.441,1.441,0,0,0,19.233-1.963Zm9.922-8.6V.576a3.78,3.78,0,0,1-.928,2.72,3.526,3.526,0,0,1-2.676.972,5.738,5.738,0,0,1-1.4-.166V1.865a5.3,5.3,0,0,0,.889.088q1.279,0,1.279-1.357V-10.566ZM26.1-13.3a1.39,1.39,0,0,1,.425-1.045,1.6,1.6,0,0,1,1.157-.41,1.6,1.6,0,0,1,1.157.41,1.39,1.39,0,0,1,.425,1.045,1.386,1.386,0,0,1-.435,1.055,1.6,1.6,0,0,1-1.147.41,1.6,1.6,0,0,1-1.147-.41A1.386,1.386,0,0,1,26.1-13.3ZM36.226.2A5.187,5.187,0,0,1,32.441-1.23a5.068,5.068,0,0,1-1.46-3.8V-5.3A6.383,6.383,0,0,1,31.6-8.149a4.515,4.515,0,0,1,1.743-1.934,4.893,4.893,0,0,1,2.573-.679,4.385,4.385,0,0,1,3.413,1.367,5.555,5.555,0,0,1,1.245,3.877v1.152H33.843a2.622,2.622,0,0,0,.825,1.66,2.5,2.5,0,0,0,1.743.625A3.046,3.046,0,0,0,38.96-3.262l1.387,1.553a4.237,4.237,0,0,1-1.719,1.4A5.639,5.639,0,0,1,36.226.2ZM35.9-8.477a1.767,1.767,0,0,0-1.362.566,2.926,2.926,0,0,0-.669,1.621H37.8v-.225a2.086,2.086,0,0,0-.508-1.45A1.824,1.824,0,0,0,35.9-8.477Z" transform="translate(800 8816)" fill="#12263f"/>
    <path id="Trazado_101035" data-name="Trazado 101035" d="M-26.138-4.736a5.031,5.031,0,0,1-1.694,3.613A5.951,5.951,0,0,1-31.86.2a5.351,5.351,0,0,1-4.3-1.841A7.548,7.548,0,0,1-37.729-6.7v-.869a8.523,8.523,0,0,1,.723-3.613,5.415,5.415,0,0,1,2.065-2.4,5.786,5.786,0,0,1,3.12-.835A5.8,5.8,0,0,1-27.856-13.1a5.407,5.407,0,0,1,1.738,3.7h-2.93a2.97,2.97,0,0,0-.767-2,2.839,2.839,0,0,0-2.007-.62,2.489,2.489,0,0,0-2.192,1.05,5.883,5.883,0,0,0-.747,3.257v1.074a6.3,6.3,0,0,0,.7,3.369A2.443,2.443,0,0,0-31.86-2.2a2.892,2.892,0,0,0,2.026-.62,2.8,2.8,0,0,0,.767-1.919ZM-21.421,0h-2.832V-10.566h2.832Zm-3-13.3a1.39,1.39,0,0,1,.425-1.045,1.6,1.6,0,0,1,1.157-.41,1.6,1.6,0,0,1,1.152.41,1.382,1.382,0,0,1,.43,1.045,1.386,1.386,0,0,1-.435,1.055,1.6,1.6,0,0,1-1.147.41,1.6,1.6,0,0,1-1.147-.41A1.386,1.386,0,0,1-24.419-13.3ZM-14.233.2A5.187,5.187,0,0,1-18.018-1.23a5.068,5.068,0,0,1-1.46-3.8V-5.3a6.383,6.383,0,0,1,.615-2.847,4.515,4.515,0,0,1,1.743-1.934,4.893,4.893,0,0,1,2.573-.679,4.385,4.385,0,0,1,3.413,1.367A5.555,5.555,0,0,1-9.888-5.518v1.152h-6.729a2.622,2.622,0,0,0,.825,1.66,2.5,2.5,0,0,0,1.743.625A3.046,3.046,0,0,0-11.5-3.262l1.387,1.553a4.237,4.237,0,0,1-1.719,1.4A5.639,5.639,0,0,1-14.233.2Zm-.322-8.672a1.767,1.767,0,0,0-1.362.566,2.926,2.926,0,0,0-.669,1.621h3.926v-.225a2.086,2.086,0,0,0-.508-1.45A1.824,1.824,0,0,0-14.556-8.477Zm8.867-2.09L-5.6-9.346a3.689,3.689,0,0,1,3.037-1.416,3.066,3.066,0,0,1,2.5.986,4.6,4.6,0,0,1,.84,2.949V0H-2.046V-6.758a1.831,1.831,0,0,0-.391-1.3,1.749,1.749,0,0,0-1.3-.405A1.942,1.942,0,0,0-5.522-7.451V0H-8.345V-10.566Zm13,8.486a1.851,1.851,0,0,0,1.27-.43,1.506,1.506,0,0,0,.508-1.143h2.646a3.62,3.62,0,0,1-.586,1.968A3.866,3.866,0,0,1,9.57-.3,4.936,4.936,0,0,1,7.358.2a4.587,4.587,0,0,1-3.574-1.44A5.7,5.7,0,0,1,2.476-5.225V-5.41a5.635,5.635,0,0,1,1.3-3.9,4.534,4.534,0,0,1,3.564-1.455,4.444,4.444,0,0,1,3.179,1.128,3.994,3.994,0,0,1,1.216,3H9.087a1.923,1.923,0,0,0-.508-1.333A1.7,1.7,0,0,0,7.29-8.477,1.7,1.7,0,0,0,5.8-7.759,4.155,4.155,0,0,0,5.3-5.43v.293a4.207,4.207,0,0,0,.5,2.344A1.722,1.722,0,0,0,7.31-2.08ZM16.323,0H13.491V-10.566h2.832Zm-3-13.3a1.39,1.39,0,0,1,.425-1.045,1.6,1.6,0,0,1,1.157-.41,1.6,1.6,0,0,1,1.152.41,1.382,1.382,0,0,1,.43,1.045,1.386,1.386,0,0,1-.435,1.055,1.6,1.6,0,0,1-1.147.41,1.6,1.6,0,0,1-1.147-.41A1.386,1.386,0,0,1,13.325-13.3ZM24.771,0a3.134,3.134,0,0,1-.283-.947A3.415,3.415,0,0,1,21.821.2a3.752,3.752,0,0,1-2.573-.9,2.89,2.89,0,0,1-1.021-2.266,2.986,2.986,0,0,1,1.245-2.578,6.144,6.144,0,0,1,3.6-.908h1.3v-.605a1.741,1.741,0,0,0-.376-1.172,1.479,1.479,0,0,0-1.187-.439,1.682,1.682,0,0,0-1.118.342,1.161,1.161,0,0,0-.405.938H18.462a2.835,2.835,0,0,1,.566-1.7,3.744,3.744,0,0,1,1.6-1.226,5.837,5.837,0,0,1,2.324-.444,4.611,4.611,0,0,1,3.1.981A3.433,3.433,0,0,1,27.2-7.021v4.58a5.052,5.052,0,0,0,.42,2.275V0ZM22.437-1.963a2.431,2.431,0,0,0,1.152-.278,1.828,1.828,0,0,0,.781-.747V-4.8H23.315Q21.2-4.8,21.06-3.34l-.01.166a1.13,1.13,0,0,0,.371.869A1.441,1.441,0,0,0,22.437-1.963ZM35.093-2.92a.909.909,0,0,0-.513-.815,5.824,5.824,0,0,0-1.646-.532q-3.77-.791-3.77-3.2a2.9,2.9,0,0,1,1.167-2.349,4.707,4.707,0,0,1,3.052-.942,5.067,5.067,0,0,1,3.218.947,2.985,2.985,0,0,1,1.206,2.461H34.985a1.366,1.366,0,0,0-.391-1,1.653,1.653,0,0,0-1.221-.4,1.689,1.689,0,0,0-1.1.322,1.017,1.017,0,0,0-.391.82.87.87,0,0,0,.444.757,4.571,4.571,0,0,0,1.5.5,12.244,12.244,0,0,1,1.777.474,2.92,2.92,0,0,1,2.236,2.842A2.756,2.756,0,0,1,36.6-.7a5.35,5.35,0,0,1-3.2.894,5.588,5.588,0,0,1-2.358-.474,3.957,3.957,0,0,1-1.616-1.3,3.018,3.018,0,0,1-.586-1.782h2.676a1.473,1.473,0,0,0,.557,1.152,2.208,2.208,0,0,0,1.387.4,2.044,2.044,0,0,0,1.226-.308A.957.957,0,0,0,35.093-2.92ZM-29.585,20.27A1.5,1.5,0,0,0-30.171,19a7.685,7.685,0,0,0-2.109-.937,14.953,14.953,0,0,1-2.412-.972,3.941,3.941,0,0,1-2.422-3.525,3.434,3.434,0,0,1,.649-2.056A4.236,4.236,0,0,1-34.6,10.094a7.021,7.021,0,0,1,2.729-.508,6.39,6.39,0,0,1,2.715.552A4.323,4.323,0,0,1-27.3,11.7a4.076,4.076,0,0,1,.659,2.285h-2.93a1.917,1.917,0,0,0-.615-1.519,2.529,2.529,0,0,0-1.729-.542,2.7,2.7,0,0,0-1.67.454,1.432,1.432,0,0,0-.6,1.2,1.372,1.372,0,0,0,.7,1.162,7.889,7.889,0,0,0,2.056.879,8.882,8.882,0,0,1,3.643,1.865,3.715,3.715,0,0,1,1.143,2.773,3.422,3.422,0,0,1-1.4,2.9A6.113,6.113,0,0,1-31.8,24.2a7.26,7.26,0,0,1-2.988-.6,4.729,4.729,0,0,1-2.056-1.646,4.214,4.214,0,0,1-.708-2.422h2.939q0,2.354,2.813,2.354a2.736,2.736,0,0,0,1.631-.425A1.382,1.382,0,0,0-29.585,20.27Zm4.3-1.65a6.266,6.266,0,0,1,.605-2.8,4.432,4.432,0,0,1,1.743-1.9,5.086,5.086,0,0,1,2.642-.674,4.812,4.812,0,0,1,3.491,1.309A5.252,5.252,0,0,1-15.3,18.1l.02.723a5.523,5.523,0,0,1-1.357,3.9,4.718,4.718,0,0,1-3.643,1.47,4.742,4.742,0,0,1-3.647-1.465,5.62,5.62,0,0,1-1.362-3.984Zm2.822.205a3.939,3.939,0,0,0,.566,2.3,1.869,1.869,0,0,0,1.621.8,1.874,1.874,0,0,0,1.6-.786,4.31,4.31,0,0,0,.576-2.515,3.9,3.9,0,0,0-.576-2.285,1.874,1.874,0,0,0-1.621-.811,1.843,1.843,0,0,0-1.6.806A4.383,4.383,0,0,0-22.466,18.824Zm13.32,3.1a1.851,1.851,0,0,0,1.27-.43,1.506,1.506,0,0,0,.508-1.143h2.646a3.62,3.62,0,0,1-.586,1.968A3.866,3.866,0,0,1-6.885,23.7,4.936,4.936,0,0,1-9.1,24.2a4.587,4.587,0,0,1-3.574-1.44,5.7,5.7,0,0,1-1.309-3.979V18.59a5.635,5.635,0,0,1,1.3-3.9,4.534,4.534,0,0,1,3.564-1.455,4.444,4.444,0,0,1,3.179,1.128,3.994,3.994,0,0,1,1.216,3H-7.368a1.923,1.923,0,0,0-.508-1.333,1.7,1.7,0,0,0-1.289-.513,1.7,1.7,0,0,0-1.489.718,4.155,4.155,0,0,0-.5,2.329v.293a4.207,4.207,0,0,0,.5,2.344A1.722,1.722,0,0,0-9.146,21.92ZM-.132,24H-2.964V13.434H-.132Zm-3-13.3a1.39,1.39,0,0,1,.425-1.045,1.6,1.6,0,0,1,1.157-.41A1.6,1.6,0,0,1-.4,9.654,1.382,1.382,0,0,1,.034,10.7,1.386,1.386,0,0,1-.4,11.754a1.6,1.6,0,0,1-1.147.41,1.6,1.6,0,0,1-1.147-.41A1.386,1.386,0,0,1-3.13,10.7ZM8.315,24a3.134,3.134,0,0,1-.283-.947A3.415,3.415,0,0,1,5.366,24.2a3.752,3.752,0,0,1-2.573-.9,2.89,2.89,0,0,1-1.021-2.266,2.986,2.986,0,0,1,1.245-2.578,6.144,6.144,0,0,1,3.6-.908h1.3v-.605a1.741,1.741,0,0,0-.376-1.172,1.479,1.479,0,0,0-1.187-.439,1.682,1.682,0,0,0-1.118.342,1.161,1.161,0,0,0-.405.938H2.007a2.835,2.835,0,0,1,.566-1.7,3.744,3.744,0,0,1,1.6-1.226A5.837,5.837,0,0,1,6.5,13.238a4.611,4.611,0,0,1,3.1.981,3.433,3.433,0,0,1,1.147,2.759v4.58a5.052,5.052,0,0,0,.42,2.275V24ZM5.981,22.037a2.431,2.431,0,0,0,1.152-.278,1.828,1.828,0,0,0,.781-.747V19.2H6.86Q4.741,19.2,4.6,20.66l-.01.166a1.13,1.13,0,0,0,.371.869A1.441,1.441,0,0,0,5.981,22.037ZM15.894,24H13.062V9h2.832Zm7.188.2A5.187,5.187,0,0,1,19.3,22.77a5.068,5.068,0,0,1-1.46-3.8V18.7a6.383,6.383,0,0,1,.615-2.847A4.515,4.515,0,0,1,20.2,13.917a4.893,4.893,0,0,1,2.573-.679,4.385,4.385,0,0,1,3.413,1.367,5.555,5.555,0,0,1,1.245,3.877v1.152H20.7a2.622,2.622,0,0,0,.825,1.66,2.5,2.5,0,0,0,1.743.625,3.046,3.046,0,0,0,2.549-1.182L27.2,22.291a4.237,4.237,0,0,1-1.719,1.4A5.639,5.639,0,0,1,23.081,24.2Zm-.322-8.672a1.767,1.767,0,0,0-1.362.566,2.926,2.926,0,0,0-.669,1.621h3.926v-.225a2.086,2.086,0,0,0-.508-1.45A1.824,1.824,0,0,0,22.759,15.523ZM34.751,21.08a.909.909,0,0,0-.513-.815,5.824,5.824,0,0,0-1.646-.532q-3.77-.791-3.77-3.2a2.9,2.9,0,0,1,1.167-2.349,4.707,4.707,0,0,1,3.052-.942,5.067,5.067,0,0,1,3.218.947,2.985,2.985,0,0,1,1.206,2.461H34.644a1.366,1.366,0,0,0-.391-1,1.653,1.653,0,0,0-1.221-.4,1.689,1.689,0,0,0-1.1.322,1.017,1.017,0,0,0-.391.82.87.87,0,0,0,.444.757,4.571,4.571,0,0,0,1.5.5,12.244,12.244,0,0,1,1.777.474A2.92,2.92,0,0,1,37.5,20.963a2.756,2.756,0,0,1-1.24,2.339,5.35,5.35,0,0,1-3.2.894,5.588,5.588,0,0,1-2.358-.474,3.957,3.957,0,0,1-1.616-1.3,3.018,3.018,0,0,1-.586-1.782h2.676a1.473,1.473,0,0,0,.557,1.152,2.208,2.208,0,0,0,1.387.4,2.044,2.044,0,0,0,1.226-.308A.957.957,0,0,0,34.751,21.08Z" transform="translate(1160 8984)" fill="#12263f"/>
    <path id="Trazado_101021" data-name="Trazado 101021" d="M5664,11780v-35h-19l35-45,35,45h-19v35Z" transform="translate(-5257.001 -2483.842)" fill="#31326f"/>
    <path id="Trazado_101036" data-name="Trazado 101036" d="M19,0V35H0L35,80,70,35H51V0Z" transform="translate(1129.794 9216.158)" fill="#31326f"/>
    <path id="Trazado_101014" data-name="Trazado 101014" d="M5664,11780v-35h-19l35-45,35,45h-19v35Z" transform="translate(7744.727 -2033.1) rotate(59)" fill="#31326f"/>
    <path id="Trazado_101028" data-name="Trazado 101028" d="M5664,11780v-35h-19l35-45,35,45h-19v35Z" transform="translate(14006.998 9833.133) rotate(120)" fill="#31326f"/>
    <path id="Trazado_101034" data-name="Trazado 101034" d="M19,0V35H0L35,80,70,35H51V0Z" transform="translate(835 9573.159) rotate(90)" fill="#31326f"/>
  </g>
</svg>
